<svg width="16" height="16" viewBox="0 0 16 16" fill="none" xmlns="http://www.w3.org/2000/svg">
<path d="M0.637563 0.637563C1.32098 -0.0458544 2.42902 -0.0458544 3.11244 0.637563L8 5.52513L12.8876 0.637563C13.571 -0.0458544 14.679 -0.0458544 15.3624 0.637563C16.0459 1.32098 16.0459 2.42902 15.3624 3.11244L10.4749 8L15.3624 12.8876C16.0459 13.571 16.0459 14.679 15.3624 15.3624C14.679 16.0459 13.571 16.0459 12.8876 15.3624L8 10.4749L3.11244 15.3624C2.42902 16.0459 1.32098 16.0459 0.637563 15.3624C-0.0458544 14.679 -0.0458544 13.571 0.637563 12.8876L5.52513 8L0.637563 3.11244C-0.0458544 2.42902 -0.0458544 1.32098 0.637563 0.637563Z" fill="white"/>
</svg>
